<svg width="14" height="14" viewBox="0 0 14 14" fill="none" xmlns="http://www.w3.org/2000/svg">
<path fill-rule="evenodd" clip-rule="evenodd" d="M1.90909 1.4C1.74032 1.4 1.57846 1.47375 1.45911 1.60503C1.33977 1.7363 1.27273 1.91435 1.27273 2.1V6.3C1.27273 7.97086 1.87613 9.57329 2.95021 10.7548C3.48203 11.3398 4.1134 11.8038 4.80827 12.1204C5.50313 12.437 6.24788 12.6 7 12.6C8.51897 12.6 9.97572 11.9363 11.0498 10.7548C12.1239 9.57329 12.7273 7.97086 12.7273 6.3V2.1C12.7273 1.91435 12.6602 1.7363 12.5409 1.60503C12.4215 1.47375 12.2597 1.4 12.0909 1.4H1.90909ZM1.90909 0H12.0909C12.5972 0 13.0828 0.221249 13.4408 0.615076C13.7989 1.0089 14 1.54305 14 2.1V6.3C14 8.34217 13.2625 10.3007 11.9497 11.7447C10.637 13.1888 8.85651 14 7 14C6.08075 14 5.1705 13.8008 4.32122 13.4139C3.47194 13.0269 2.70026 12.4597 2.05025 11.7447C0.737498 10.3007 0 8.34217 0 6.3V2.1C0 1.54305 0.201136 1.0089 0.55916 0.615076C0.917184 0.221249 1.40277 0 1.90909 0Z" fill="white"/>
<path fill-rule="evenodd" clip-rule="evenodd" d="M4.0045 5.10542C4.25302 4.83205 4.65594 4.83205 4.90446 5.10542L6.99993 7.41044L9.09541 5.10542C9.34393 4.83205 9.74685 4.83205 9.99536 5.10542C10.2439 5.37878 10.2439 5.822 9.99536 6.09537L7.44991 8.89537C7.2014 9.16873 6.79847 9.16873 6.54996 8.89537L4.0045 6.09537C3.75599 5.822 3.75599 5.37878 4.0045 5.10542Z" fill="white"/>
</svg>
