<svg version="1.2" baseProfile="tiny-ps" xmlns="http://www.w3.org/2000/svg" viewBox="0 0 17 10" width="17" height="10">
	<title>Layer</title>
	<style>
		tspan { white-space:pre }
		.s0 { fill: #1a1a1a } 
	</style>
	<path id="Layer" fill-rule="evenodd" class="s0" d="m0.76 3.48c0-0.53 0.09-1.01 0.28-1.43c0.2-0.43 0.46-0.79 0.8-1.09c0.34-0.31 0.73-0.54 1.18-0.7c0.46-0.16 0.95-0.24 1.47-0.24c0.5 0 0.96 0.07 1.4 0.22c0.44 0.14 0.82 0.35 1.15 0.63c0.33 0.28 0.58 0.63 0.77 1.04c0.19 0.4 0.28 0.86 0.28 1.37c0 0.51-0.09 0.96-0.28 1.33c-0.18 0.37-0.42 0.7-0.73 0.97c-0.31 0.26-0.66 0.48-1.06 0.66c-0.39 0.18-0.81 0.32-1.25 0.43c-0.12 0.03-0.24 0.06-0.36 0.08c-0.11 0.03-0.23 0.06-0.35 0.1c-0.26 0.07-0.5 0.14-0.73 0.22c-0.22 0.08-0.4 0.19-0.56 0.32c-0.15 0.13-0.27 0.29-0.36 0.49c-0.09 0.19-0.14 0.42-0.15 0.71h5.88v1.4h-7.42v-1.26c0-0.57 0.09-1.04 0.27-1.41c0.18-0.37 0.41-0.68 0.69-0.92c0.29-0.24 0.61-0.43 0.97-0.57c0.36-0.14 0.73-0.27 1.09-0.38c0.19-0.05 0.37-0.09 0.55-0.14c0.18-0.06 0.35-0.11 0.52-0.17c0.24-0.07 0.47-0.16 0.67-0.25c0.22-0.1 0.4-0.22 0.56-0.36c0.16-0.14 0.28-0.31 0.38-0.5c0.09-0.21 0.14-0.45 0.14-0.74c0-0.61-0.19-1.07-0.56-1.39c-0.37-0.32-0.87-0.48-1.48-0.48c-0.63 0-1.14 0.16-1.53 0.48c-0.38 0.32-0.6 0.78-0.64 1.4c-0.01 0.13-0.01 0.26-0.01 0.38c0 0.12 0 0.25 0 0.38v0.13h-1.54v-0.7zm12.5-3.28h1.88v6.54h1.67v1.41h-1.67v1.85h-1.54v-1.85h-5.14v-1.11l4.8-6.85zm-2.81 6.54h3.15v-4.42l-3.15 4.42z" />
</svg>