<svg width="18" height="16" viewBox="0 0 18 16" fill="none" xmlns="http://www.w3.org/2000/svg">
<path d="M15.3 0H2.7C1.98392 0 1.29716 0.280952 0.790812 0.781049C0.284464 1.28115 0 1.95942 0 2.66667V9.77778C0 10.485 0.284464 11.1633 0.790812 11.6634C1.29716 12.1635 1.98392 12.4444 2.7 12.4444H8.1V14.2222H4.5C4.2613 14.2222 4.03239 14.3159 3.8636 14.4826C3.69482 14.6493 3.6 14.8754 3.6 15.1111C3.6 15.3469 3.69482 15.573 3.8636 15.7397C4.03239 15.9064 4.2613 16 4.5 16H13.5C13.7387 16 13.9676 15.9064 14.1364 15.7397C14.3052 15.573 14.4 15.3469 14.4 15.1111C14.4 14.8754 14.3052 14.6493 14.1364 14.4826C13.9676 14.3159 13.7387 14.2222 13.5 14.2222H9.9V12.4444H15.3C16.0161 12.4444 16.7028 12.1635 17.2092 11.6634C17.7155 11.1633 18 10.485 18 9.77778V2.66667C18 1.95942 17.7155 1.28115 17.2092 0.781049C16.7028 0.280952 16.0161 0 15.3 0ZM16.2 9.77778C16.2 10.0135 16.1052 10.2396 15.9364 10.4063C15.7676 10.573 15.5387 10.6667 15.3 10.6667H2.7C2.46131 10.6667 2.23239 10.573 2.0636 10.4063C1.89482 10.2396 1.8 10.0135 1.8 9.77778V2.66667C1.8 2.43092 1.89482 2.20483 2.0636 2.03813C2.23239 1.87143 2.46131 1.77778 2.7 1.77778H15.3C15.5387 1.77778 15.7676 1.87143 15.9364 2.03813C16.1052 2.20483 16.2 2.43092 16.2 2.66667V9.77778Z" fill="white"/>
</svg>
