<svg width="14" height="17" viewBox="0 0 14 17" fill="none" xmlns="http://www.w3.org/2000/svg">
<path d="M14 5.899C13.9909 5.82091 13.9733 5.74399 13.9475 5.6695V5.593C13.9054 5.5056 13.8493 5.42527 13.7812 5.355L8.53125 0.255C8.45892 0.188884 8.37622 0.134369 8.28625 0.0934999H8.2075L7.9275 0H2.625C1.92881 0 1.26113 0.26866 0.768845 0.746878C0.276562 1.2251 0 1.8737 0 2.55V14.45C0 15.1263 0.276562 15.7749 0.768845 16.2531C1.26113 16.7313 1.92881 17 2.625 17H11.375C12.0712 17 12.7389 16.7313 13.2312 16.2531C13.7234 15.7749 14 15.1263 14 14.45V5.95C14 5.95 14 5.95 14 5.899ZM8.75 2.8985L11.0163 5.1H8.75V2.8985ZM12.25 14.45C12.25 14.6754 12.1578 14.8916 11.9937 15.051C11.8296 15.2104 11.6071 15.3 11.375 15.3H2.625C2.39294 15.3 2.17038 15.2104 2.00628 15.051C1.84219 14.8916 1.75 14.6754 1.75 14.45V2.55C1.75 2.32457 1.84219 2.10837 2.00628 1.94896C2.17038 1.78955 2.39294 1.7 2.625 1.7H7V5.95C7 6.17543 7.09219 6.39163 7.25628 6.55104C7.42038 6.71045 7.64294 6.8 7.875 6.8H12.25V14.45Z" fill="#1A1A1A"/>
</svg>
