<svg width="12" height="14" viewBox="0 0 12 14" fill="none" xmlns="http://www.w3.org/2000/svg">
<path d="M7.7 9.8H3.5C3.31435 9.8 3.1363 9.87375 3.00503 10.005C2.87375 10.1363 2.8 10.3143 2.8 10.5C2.8 10.6857 2.87375 10.8637 3.00503 10.995C3.1363 11.1263 3.31435 11.2 3.5 11.2H7.7C7.88565 11.2 8.0637 11.1263 8.19497 10.995C8.32625 10.8637 8.4 10.6857 8.4 10.5C8.4 10.3143 8.32625 10.1363 8.19497 10.005C8.0637 9.87375 7.88565 9.8 7.7 9.8ZM3.5 5.6H4.2C4.38565 5.6 4.5637 5.52625 4.69497 5.39497C4.82625 5.2637 4.9 5.08565 4.9 4.9C4.9 4.71435 4.82625 4.5363 4.69497 4.40503C4.5637 4.27375 4.38565 4.2 4.2 4.2H3.5C3.31435 4.2 3.1363 4.27375 3.00503 4.40503C2.87375 4.5363 2.8 4.71435 2.8 4.9C2.8 5.08565 2.87375 5.2637 3.00503 5.39497C3.1363 5.52625 3.31435 5.6 3.5 5.6V5.6ZM7.7 7H3.5C3.31435 7 3.1363 7.07375 3.00503 7.20503C2.87375 7.3363 2.8 7.51435 2.8 7.7C2.8 7.88565 2.87375 8.0637 3.00503 8.19497C3.1363 8.32625 3.31435 8.4 3.5 8.4H7.7C7.88565 8.4 8.0637 8.32625 8.19497 8.19497C8.32625 8.0637 8.4 7.88565 8.4 7.7C8.4 7.51435 8.32625 7.3363 8.19497 7.20503C8.0637 7.07375 7.88565 7 7.7 7ZM10.997 9.303C10.9304 9.23927 10.8519 9.18932 10.766 9.156C10.6824 9.1181 10.5918 9.0985 10.5 9.0985C10.4082 9.0985 10.3176 9.1181 10.234 9.156C10.1481 9.18932 10.0696 9.23927 10.003 9.303C9.94117 9.37104 9.89145 9.44917 9.856 9.534C9.80239 9.66148 9.78775 9.80198 9.81391 9.93777C9.84007 10.0736 9.90587 10.1986 10.003 10.297C10.0684 10.3619 10.146 10.4132 10.2313 10.448C10.3166 10.4829 10.4079 10.5005 10.5 10.5C10.5915 10.4989 10.6818 10.4799 10.766 10.444C10.8508 10.4086 10.929 10.3588 10.997 10.297C11.0941 10.1986 11.1599 10.0736 11.1861 9.93777C11.2123 9.80198 11.1976 9.66148 11.144 9.534C11.1086 9.44917 11.0588 9.37104 10.997 9.303V9.303ZM11.2 4.858C11.1927 4.79369 11.1786 4.73034 11.158 4.669V4.606C11.1243 4.53403 11.0794 4.46787 11.025 4.41V4.41L6.825 0.21C6.76713 0.155551 6.70097 0.110657 6.629 0.0769999C6.6081 0.0740321 6.5869 0.0740321 6.566 0.0769999C6.49489 0.0362189 6.41636 0.0100409 6.335 0H2.1C1.54305 0 1.0089 0.221249 0.615076 0.615076C0.221249 1.0089 0 1.54305 0 2.1V11.9C0 12.457 0.221249 12.9911 0.615076 13.3849C1.0089 13.7788 1.54305 14 2.1 14H7.7C7.88565 14 8.0637 13.9263 8.19497 13.795C8.32625 13.6637 8.4 13.4857 8.4 13.3C8.4 13.1143 8.32625 12.9363 8.19497 12.805C8.0637 12.6737 7.88565 12.6 7.7 12.6H2.1C1.91435 12.6 1.7363 12.5263 1.60503 12.395C1.47375 12.2637 1.4 12.0857 1.4 11.9V2.1C1.4 1.91435 1.47375 1.7363 1.60503 1.60503C1.7363 1.47375 1.91435 1.4 2.1 1.4H5.6V3.5C5.6 4.05695 5.82125 4.5911 6.21508 4.98492C6.6089 5.37875 7.14305 5.6 7.7 5.6H9.8V7C9.8 7.18565 9.87375 7.3637 10.005 7.49497C10.1363 7.62625 10.3143 7.7 10.5 7.7C10.6857 7.7 10.8637 7.62625 10.995 7.49497C11.1263 7.3637 11.2 7.18565 11.2 7V4.9C11.2 4.9 11.2 4.9 11.2 4.858ZM7.7 4.2C7.51435 4.2 7.3363 4.12625 7.20503 3.99497C7.07375 3.8637 7 3.68565 7 3.5V2.387L8.813 4.2H7.7ZM10.5 11.2C10.3143 11.2 10.1363 11.2737 10.005 11.405C9.87375 11.5363 9.8 11.7143 9.8 11.9V13.3C9.8 13.4857 9.87375 13.6637 10.005 13.795C10.1363 13.9263 10.3143 14 10.5 14C10.6857 14 10.8637 13.9263 10.995 13.795C11.1263 13.6637 11.2 13.4857 11.2 13.3V11.9C11.2 11.7143 11.1263 11.5363 10.995 11.405C10.8637 11.2737 10.6857 11.2 10.5 11.2Z" fill="white"/>
</svg>
