<svg width="18" height="14" viewBox="0 0 18 14" fill="none" xmlns="http://www.w3.org/2000/svg">
<path d="M17.9249 6.65C16.1075 2.54625 12.6887 0 9 0C5.31129 0 1.89248 2.54625 0.0751101 6.65C0.0255704 6.7604 0 6.87955 0 7C0 7.12045 0.0255704 7.2396 0.0751101 7.35C1.89248 11.4537 5.31129 14 9 14C12.6887 14 16.1075 11.4537 17.9249 7.35C17.9744 7.2396 18 7.12045 18 7C18 6.87955 17.9744 6.7604 17.9249 6.65ZM9 12.25C6.14799 12.25 3.44893 10.2463 1.89248 7C3.44893 3.75375 6.14799 1.75 9 1.75C11.852 1.75 14.5511 3.75375 16.1075 7C14.5511 10.2463 11.852 12.25 9 12.25ZM9 3.5C8.28823 3.5 7.59245 3.70527 7.00064 4.08986C6.40883 4.47444 5.94757 5.02107 5.67519 5.66061C5.40281 6.30015 5.33154 7.00388 5.4704 7.68282C5.60926 8.36175 5.95201 8.98539 6.4553 9.47487C6.9586 9.96436 7.59983 10.2977 8.29792 10.4327C8.99601 10.5678 9.7196 10.4985 10.3772 10.2336C11.0348 9.96867 11.5968 9.52007 11.9922 8.9445C12.3877 8.36892 12.5987 7.69223 12.5987 7C12.5987 6.07174 12.2196 5.1815 11.5447 4.52513C10.8698 3.86875 9.95445 3.5 9 3.5ZM9 8.75C8.64412 8.75 8.29623 8.64736 8.00032 8.45507C7.70442 8.26278 7.47379 7.98947 7.3376 7.6697C7.20141 7.34993 7.16577 6.99806 7.2352 6.65859C7.30463 6.31913 7.476 6.00731 7.72765 5.76256C7.9793 5.51782 8.29992 5.35115 8.64896 5.28363C8.998 5.2161 9.3598 5.25076 9.68859 5.38321C10.0174 5.51566 10.2984 5.73997 10.4961 6.02775C10.6938 6.31554 10.7994 6.65388 10.7994 7C10.7994 7.46413 10.6098 7.90925 10.2723 8.23744C9.9349 8.56563 9.47722 8.75 9 8.75Z" fill="black"/>
</svg>
