<svg width="892" height="392" viewBox="0 0 892 392" fill="none" xmlns="http://www.w3.org/2000/svg">
<path d="M6 1H76C78.7614 1 81 3.236 81 5.99426V25.9713C81 28.7295 78.7614 30.9655 76 30.9655H6C3.23858 30.9655 1 28.7295 1 25.9713V5.99426C1 3.236 3.23858 1 6 1Z" stroke="#1A1A1A" stroke-opacity="0.04"/>
<path d="M6 40.954H76C78.7614 40.954 81 43.19 81 45.9483V65.9253C81 68.6836 78.7614 70.9196 76 70.9196H6C3.23858 70.9196 1 68.6836 1 65.9253V45.9483C1 43.19 3.23858 40.954 6 40.954Z" stroke="#1A1A1A" stroke-opacity="0.04"/>
<path d="M6 80.9081H76C78.7614 80.9081 81 83.1441 81 85.9023V105.879C81 108.638 78.7614 110.874 76 110.874H6C3.23858 110.874 1 108.638 1 105.879V85.9023C1 83.1441 3.23858 80.9081 6 80.9081Z" stroke="#1A1A1A" stroke-opacity="0.04"/>
<path d="M6 120.862H76C78.7614 120.862 81 123.098 81 125.856V145.833C81 148.592 78.7614 150.828 76 150.828H6C3.23858 150.828 1 148.592 1 145.833V125.856C1 123.098 3.23858 120.862 6 120.862Z" stroke="#1A1A1A" stroke-opacity="0.04"/>
<path d="M6 160.816H76C78.7614 160.816 81 163.052 81 165.81V185.787C81 188.546 78.7614 190.782 76 190.782H6C3.23858 190.782 1 188.546 1 185.787V165.81C1 163.052 3.23858 160.816 6 160.816Z" stroke="#1A1A1A" stroke-opacity="0.04"/>
<path d="M6 200.77H76C78.7614 200.77 81 203.006 81 205.764V225.741C81 228.5 78.7614 230.736 76 230.736H6C3.23858 230.736 1 228.5 1 225.741V205.764C1 203.006 3.23858 200.77 6 200.77Z" stroke="#1A1A1A" stroke-opacity="0.04"/>
<path d="M6 240.724H76C78.7614 240.724 81 242.96 81 245.719V265.696C81 268.454 78.7614 270.69 76 270.69H6C3.23858 270.69 1 268.454 1 265.696V245.719C1 242.96 3.23858 240.724 6 240.724Z" stroke="#1A1A1A" stroke-opacity="0.04"/>
<path d="M6 280.678H76C78.7614 280.678 81 282.914 81 285.673V305.65C81 308.408 78.7614 310.644 76 310.644H6C3.23858 310.644 1 308.408 1 305.65V285.673C1 282.914 3.23858 280.678 6 280.678Z" stroke="#1A1A1A" stroke-opacity="0.04"/>
<path d="M6 320.632H76C78.7614 320.632 81 322.868 81 325.627V345.604C81 348.362 78.7614 350.598 76 350.598H6C3.23858 350.598 1 348.362 1 345.604V325.627C1 322.868 3.23858 320.632 6 320.632Z" stroke="#1A1A1A" stroke-opacity="0.04"/>
<path d="M76 360.586H6C3.23858 360.586 1 362.822 1 365.581V385.558C1 388.316 3.23858 390.552 6 390.552H76C78.7614 390.552 81 388.316 81 385.558V365.581C81 362.822 78.7614 360.586 76 360.586Z" stroke="#1A1A1A" stroke-opacity="0.04"/>
<path d="M166 360.586H96C93.2386 360.586 91 362.822 91 365.581V385.558C91 388.316 93.2386 390.552 96 390.552H166C168.761 390.552 171 388.316 171 385.558V365.581C171 362.822 168.761 360.586 166 360.586Z" stroke="#1A1A1A" stroke-opacity="0.04"/>
<path d="M186 360.586H256C258.761 360.586 261 362.822 261 365.581V385.558C261 388.316 258.761 390.552 256 390.552H186C183.239 390.552 181 388.316 181 385.558V365.581C181 362.822 183.239 360.586 186 360.586Z" stroke="#1A1A1A" stroke-opacity="0.04"/>
<path d="M346 360.586H276C273.239 360.586 271 362.822 271 365.581V385.558C271 388.316 273.239 390.552 276 390.552H346C348.761 390.552 351 388.316 351 385.558V365.581C351 362.822 348.761 360.586 346 360.586Z" stroke="#1A1A1A" stroke-opacity="0.04"/>
<path d="M366 360.586H436C438.761 360.586 441 362.822 441 365.581V385.558C441 388.316 438.761 390.552 436 390.552H366C363.239 390.552 361 388.316 361 385.558V365.581C361 362.822 363.239 360.586 366 360.586Z" stroke="#1A1A1A" stroke-opacity="0.04"/>
<path d="M526 360.586H456C453.239 360.586 451 362.822 451 365.581V385.558C451 388.316 453.239 390.552 456 390.552H526C528.761 390.552 531 388.316 531 385.558V365.581C531 362.822 528.761 360.586 526 360.586Z" stroke="#1A1A1A" stroke-opacity="0.04"/>
<path d="M546 360.586H616C618.761 360.586 621 362.822 621 365.581V385.558C621 388.316 618.761 390.552 616 390.552H546C543.239 390.552 541 388.316 541 385.558V365.581C541 362.822 543.239 360.586 546 360.586Z" stroke="#1A1A1A" stroke-opacity="0.04"/>
<path d="M706 360.586H636C633.239 360.586 631 362.822 631 365.581V385.558C631 388.316 633.239 390.552 636 390.552H706C708.761 390.552 711 388.316 711 385.558V365.581C711 362.822 708.761 360.586 706 360.586Z" stroke="#1A1A1A" stroke-opacity="0.04"/>
<path d="M726 360.586H796C798.761 360.586 801 362.822 801 365.581V385.558C801 388.316 798.761 390.552 796 390.552H726C723.239 390.552 721 388.316 721 385.558V365.581C721 362.822 723.239 360.586 726 360.586Z" stroke="#1A1A1A" stroke-opacity="0.04"/>
<path d="M886 360.586H816C813.239 360.586 811 362.822 811 365.581V385.558C811 388.316 813.239 390.552 816 390.552H886C888.761 390.552 891 388.316 891 385.558V365.581C891 362.822 888.761 360.586 886 360.586Z" stroke="#1A1A1A" stroke-opacity="0.04"/>
<path d="M166 320.632H96C93.2386 320.632 91 322.868 91 325.627V345.604C91 348.362 93.2386 350.598 96 350.598H166C168.761 350.598 171 348.362 171 345.604V325.627C171 322.868 168.761 320.632 166 320.632Z" stroke="#1A1A1A" stroke-opacity="0.04"/>
<path d="M186 320.632H256C258.761 320.632 261 322.868 261 325.627V345.604C261 348.362 258.761 350.598 256 350.598H186C183.239 350.598 181 348.362 181 345.604V325.627C181 322.868 183.239 320.632 186 320.632Z" stroke="#1A1A1A" stroke-opacity="0.04"/>
<path d="M346 320.632H276C273.239 320.632 271 322.868 271 325.627V345.604C271 348.362 273.239 350.598 276 350.598H346C348.761 350.598 351 348.362 351 345.604V325.627C351 322.868 348.761 320.632 346 320.632Z" stroke="#1A1A1A" stroke-opacity="0.04"/>
<path d="M366 320.632H436C438.761 320.632 441 322.868 441 325.627V345.604C441 348.362 438.761 350.598 436 350.598H366C363.239 350.598 361 348.362 361 345.604V325.627C361 322.868 363.239 320.632 366 320.632Z" stroke="#1A1A1A" stroke-opacity="0.04"/>
<path d="M526 320.632H456C453.239 320.632 451 322.868 451 325.627V345.604C451 348.362 453.239 350.598 456 350.598H526C528.761 350.598 531 348.362 531 345.604V325.627C531 322.868 528.761 320.632 526 320.632Z" stroke="#1A1A1A" stroke-opacity="0.04"/>
<path d="M546 320.632H616C618.761 320.632 621 322.868 621 325.627V345.604C621 348.362 618.761 350.598 616 350.598H546C543.239 350.598 541 348.362 541 345.604V325.627C541 322.868 543.239 320.632 546 320.632Z" stroke="#1A1A1A" stroke-opacity="0.04"/>
<path d="M706 320.632H636C633.239 320.632 631 322.868 631 325.627V345.604C631 348.362 633.239 350.598 636 350.598H706C708.761 350.598 711 348.362 711 345.604V325.627C711 322.868 708.761 320.632 706 320.632Z" stroke="#1A1A1A" stroke-opacity="0.04"/>
<path d="M726 320.632H796C798.761 320.632 801 322.868 801 325.627V345.604C801 348.362 798.761 350.598 796 350.598H726C723.239 350.598 721 348.362 721 345.604V325.627C721 322.868 723.239 320.632 726 320.632Z" stroke="#1A1A1A" stroke-opacity="0.04"/>
<path d="M886 320.632H816C813.239 320.632 811 322.868 811 325.627V345.604C811 348.362 813.239 350.598 816 350.598H886C888.761 350.598 891 348.362 891 345.604V325.627C891 322.868 888.761 320.632 886 320.632Z" stroke="#1A1A1A" stroke-opacity="0.04"/>
<path d="M166 280.678H96C93.2386 280.678 91 282.914 91 285.673V305.65C91 308.408 93.2386 310.644 96 310.644H166C168.761 310.644 171 308.408 171 305.65V285.673C171 282.914 168.761 280.678 166 280.678Z" stroke="#1A1A1A" stroke-opacity="0.04"/>
<path d="M186 280.678H256C258.761 280.678 261 282.914 261 285.673V305.65C261 308.408 258.761 310.644 256 310.644H186C183.239 310.644 181 308.408 181 305.65V285.673C181 282.914 183.239 280.678 186 280.678Z" stroke="#1A1A1A" stroke-opacity="0.04"/>
<path d="M346 280.678H276C273.239 280.678 271 282.914 271 285.673V305.65C271 308.408 273.239 310.644 276 310.644H346C348.761 310.644 351 308.408 351 305.65V285.673C351 282.914 348.761 280.678 346 280.678Z" stroke="#1A1A1A" stroke-opacity="0.04"/>
<path d="M366 280.678H436C438.761 280.678 441 282.914 441 285.673V305.65C441 308.408 438.761 310.644 436 310.644H366C363.239 310.644 361 308.408 361 305.65V285.673C361 282.914 363.239 280.678 366 280.678Z" stroke="#1A1A1A" stroke-opacity="0.04"/>
<path d="M526 280.678H456C453.239 280.678 451 282.914 451 285.673V305.65C451 308.408 453.239 310.644 456 310.644H526C528.761 310.644 531 308.408 531 305.65V285.673C531 282.914 528.761 280.678 526 280.678Z" stroke="#1A1A1A" stroke-opacity="0.04"/>
<path d="M546 280.678H616C618.761 280.678 621 282.914 621 285.673V305.65C621 308.408 618.761 310.644 616 310.644H546C543.239 310.644 541 308.408 541 305.65V285.673C541 282.914 543.239 280.678 546 280.678Z" stroke="#1A1A1A" stroke-opacity="0.04"/>
<path d="M706 280.678H636C633.239 280.678 631 282.914 631 285.673V305.65C631 308.408 633.239 310.644 636 310.644H706C708.761 310.644 711 308.408 711 305.65V285.673C711 282.914 708.761 280.678 706 280.678Z" stroke="#1A1A1A" stroke-opacity="0.04"/>
<path d="M726 280.678H796C798.761 280.678 801 282.914 801 285.673V305.65C801 308.408 798.761 310.644 796 310.644H726C723.239 310.644 721 308.408 721 305.65V285.673C721 282.914 723.239 280.678 726 280.678Z" stroke="#1A1A1A" stroke-opacity="0.04"/>
<path d="M886 280.678H816C813.239 280.678 811 282.914 811 285.673V305.65C811 308.408 813.239 310.644 816 310.644H886C888.761 310.644 891 308.408 891 305.65V285.673C891 282.914 888.761 280.678 886 280.678Z" stroke="#1A1A1A" stroke-opacity="0.04"/>
<path d="M166 240.724H96C93.2386 240.724 91 242.96 91 245.719V265.696C91 268.454 93.2386 270.69 96 270.69H166C168.761 270.69 171 268.454 171 265.696V245.719C171 242.96 168.761 240.724 166 240.724Z" stroke="#1A1A1A" stroke-opacity="0.04"/>
<path d="M186 240.724H256C258.761 240.724 261 242.96 261 245.719V265.696C261 268.454 258.761 270.69 256 270.69H186C183.239 270.69 181 268.454 181 265.696V245.719C181 242.96 183.239 240.724 186 240.724Z" stroke="#1A1A1A" stroke-opacity="0.04"/>
<path d="M346 240.724H276C273.239 240.724 271 242.96 271 245.719V265.696C271 268.454 273.239 270.69 276 270.69H346C348.761 270.69 351 268.454 351 265.696V245.719C351 242.96 348.761 240.724 346 240.724Z" stroke="#1A1A1A" stroke-opacity="0.04"/>
<path d="M366 240.724H436C438.761 240.724 441 242.96 441 245.719V265.696C441 268.454 438.761 270.69 436 270.69H366C363.239 270.69 361 268.454 361 265.696V245.719C361 242.96 363.239 240.724 366 240.724Z" stroke="#1A1A1A" stroke-opacity="0.04"/>
<path d="M526 240.724H456C453.239 240.724 451 242.96 451 245.719V265.696C451 268.454 453.239 270.69 456 270.69H526C528.761 270.69 531 268.454 531 265.696V245.719C531 242.96 528.761 240.724 526 240.724Z" stroke="#1A1A1A" stroke-opacity="0.04"/>
<path d="M546 240.724H616C618.761 240.724 621 242.96 621 245.719V265.696C621 268.454 618.761 270.69 616 270.69H546C543.239 270.69 541 268.454 541 265.696V245.719C541 242.96 543.239 240.724 546 240.724Z" stroke="#1A1A1A" stroke-opacity="0.04"/>
<path d="M706 240.724H636C633.239 240.724 631 242.96 631 245.719V265.696C631 268.454 633.239 270.69 636 270.69H706C708.761 270.69 711 268.454 711 265.696V245.719C711 242.96 708.761 240.724 706 240.724Z" stroke="#1A1A1A" stroke-opacity="0.04"/>
<path d="M726 240.724H796C798.761 240.724 801 242.96 801 245.719V265.696C801 268.454 798.761 270.69 796 270.69H726C723.239 270.69 721 268.454 721 265.696V245.719C721 242.96 723.239 240.724 726 240.724Z" stroke="#1A1A1A" stroke-opacity="0.04"/>
<path d="M886 240.724H816C813.239 240.724 811 242.96 811 245.719V265.696C811 268.454 813.239 270.69 816 270.69H886C888.761 270.69 891 268.454 891 265.696V245.719C891 242.96 888.761 240.724 886 240.724Z" stroke="#1A1A1A" stroke-opacity="0.04"/>
<path d="M166 200.77H96C93.2386 200.77 91 203.006 91 205.764V225.741C91 228.5 93.2386 230.736 96 230.736H166C168.761 230.736 171 228.5 171 225.741V205.764C171 203.006 168.761 200.77 166 200.77Z" stroke="#1A1A1A" stroke-opacity="0.04"/>
<path d="M186 200.77H256C258.761 200.77 261 203.006 261 205.764V225.741C261 228.5 258.761 230.736 256 230.736H186C183.239 230.736 181 228.5 181 225.741V205.764C181 203.006 183.239 200.77 186 200.77Z" stroke="#1A1A1A" stroke-opacity="0.04"/>
<path d="M346 200.77H276C273.239 200.77 271 203.006 271 205.764V225.741C271 228.5 273.239 230.736 276 230.736H346C348.761 230.736 351 228.5 351 225.741V205.764C351 203.006 348.761 200.77 346 200.77Z" stroke="#1A1A1A" stroke-opacity="0.04"/>
<path d="M366 200.77H436C438.761 200.77 441 203.006 441 205.764V225.741C441 228.5 438.761 230.736 436 230.736H366C363.239 230.736 361 228.5 361 225.741V205.764C361 203.006 363.239 200.77 366 200.77Z" stroke="#1A1A1A" stroke-opacity="0.04"/>
<path d="M526 200.77H456C453.239 200.77 451 203.006 451 205.764V225.741C451 228.5 453.239 230.736 456 230.736H526C528.761 230.736 531 228.5 531 225.741V205.764C531 203.006 528.761 200.77 526 200.77Z" stroke="#1A1A1A" stroke-opacity="0.04"/>
<path d="M546 200.77H616C618.761 200.77 621 203.006 621 205.764V225.741C621 228.5 618.761 230.736 616 230.736H546C543.239 230.736 541 228.5 541 225.741V205.764C541 203.006 543.239 200.77 546 200.77Z" stroke="#1A1A1A" stroke-opacity="0.04"/>
<path d="M706 200.77H636C633.239 200.77 631 203.006 631 205.764V225.741C631 228.5 633.239 230.736 636 230.736H706C708.761 230.736 711 228.5 711 225.741V205.764C711 203.006 708.761 200.77 706 200.77Z" stroke="#1A1A1A" stroke-opacity="0.04"/>
<path d="M726 200.77H796C798.761 200.77 801 203.006 801 205.764V225.741C801 228.5 798.761 230.736 796 230.736H726C723.239 230.736 721 228.5 721 225.741V205.764C721 203.006 723.239 200.77 726 200.77Z" stroke="#1A1A1A" stroke-opacity="0.04"/>
<path d="M886 200.77H816C813.239 200.77 811 203.006 811 205.764V225.741C811 228.5 813.239 230.736 816 230.736H886C888.761 230.736 891 228.5 891 225.741V205.764C891 203.006 888.761 200.77 886 200.77Z" stroke="#1A1A1A" stroke-opacity="0.04"/>
<path d="M166 160.816H96C93.2386 160.816 91 163.052 91 165.81V185.787C91 188.546 93.2386 190.782 96 190.782H166C168.761 190.782 171 188.546 171 185.787V165.81C171 163.052 168.761 160.816 166 160.816Z" stroke="#1A1A1A" stroke-opacity="0.04"/>
<path d="M186 160.816H256C258.761 160.816 261 163.052 261 165.81V185.787C261 188.546 258.761 190.782 256 190.782H186C183.239 190.782 181 188.546 181 185.787V165.81C181 163.052 183.239 160.816 186 160.816Z" stroke="#1A1A1A" stroke-opacity="0.04"/>
<path d="M346 160.816H276C273.239 160.816 271 163.052 271 165.81V185.787C271 188.546 273.239 190.782 276 190.782H346C348.761 190.782 351 188.546 351 185.787V165.81C351 163.052 348.761 160.816 346 160.816Z" stroke="#1A1A1A" stroke-opacity="0.04"/>
<path d="M366 160.816H436C438.761 160.816 441 163.052 441 165.81V185.787C441 188.546 438.761 190.782 436 190.782H366C363.239 190.782 361 188.546 361 185.787V165.81C361 163.052 363.239 160.816 366 160.816Z" stroke="#1A1A1A" stroke-opacity="0.04"/>
<path d="M526 160.816H456C453.239 160.816 451 163.052 451 165.81V185.787C451 188.546 453.239 190.782 456 190.782H526C528.761 190.782 531 188.546 531 185.787V165.81C531 163.052 528.761 160.816 526 160.816Z" stroke="#1A1A1A" stroke-opacity="0.04"/>
<path d="M546 160.816H616C618.761 160.816 621 163.052 621 165.81V185.787C621 188.546 618.761 190.782 616 190.782H546C543.239 190.782 541 188.546 541 185.787V165.81C541 163.052 543.239 160.816 546 160.816Z" stroke="#1A1A1A" stroke-opacity="0.04"/>
<path d="M706 160.816H636C633.239 160.816 631 163.052 631 165.81V185.787C631 188.546 633.239 190.782 636 190.782H706C708.761 190.782 711 188.546 711 185.787V165.81C711 163.052 708.761 160.816 706 160.816Z" stroke="#1A1A1A" stroke-opacity="0.04"/>
<path d="M726 160.816H796C798.761 160.816 801 163.052 801 165.81V185.787C801 188.546 798.761 190.782 796 190.782H726C723.239 190.782 721 188.546 721 185.787V165.81C721 163.052 723.239 160.816 726 160.816Z" stroke="#1A1A1A" stroke-opacity="0.04"/>
<path d="M886 160.816H816C813.239 160.816 811 163.052 811 165.81V185.787C811 188.546 813.239 190.782 816 190.782H886C888.761 190.782 891 188.546 891 185.787V165.81C891 163.052 888.761 160.816 886 160.816Z" stroke="#1A1A1A" stroke-opacity="0.04"/>
<path d="M166 120.862H96C93.2386 120.862 91 123.098 91 125.856V145.833C91 148.592 93.2386 150.828 96 150.828H166C168.761 150.828 171 148.592 171 145.833V125.856C171 123.098 168.761 120.862 166 120.862Z" stroke="#1A1A1A" stroke-opacity="0.04"/>
<path d="M186 120.862H256C258.761 120.862 261 123.098 261 125.856V145.833C261 148.592 258.761 150.828 256 150.828H186C183.239 150.828 181 148.592 181 145.833V125.856C181 123.098 183.239 120.862 186 120.862Z" stroke="#1A1A1A" stroke-opacity="0.04"/>
<path d="M346 120.862H276C273.239 120.862 271 123.098 271 125.856V145.833C271 148.592 273.239 150.828 276 150.828H346C348.761 150.828 351 148.592 351 145.833V125.856C351 123.098 348.761 120.862 346 120.862Z" stroke="#1A1A1A" stroke-opacity="0.04"/>
<path d="M366 120.862H436C438.761 120.862 441 123.098 441 125.856V145.833C441 148.592 438.761 150.828 436 150.828H366C363.239 150.828 361 148.592 361 145.833V125.856C361 123.098 363.239 120.862 366 120.862Z" stroke="#1A1A1A" stroke-opacity="0.04"/>
<path d="M526 120.862H456C453.239 120.862 451 123.098 451 125.856V145.833C451 148.592 453.239 150.828 456 150.828H526C528.761 150.828 531 148.592 531 145.833V125.856C531 123.098 528.761 120.862 526 120.862Z" stroke="#1A1A1A" stroke-opacity="0.04"/>
<path d="M546 120.862H616C618.761 120.862 621 123.098 621 125.856V145.833C621 148.592 618.761 150.828 616 150.828H546C543.239 150.828 541 148.592 541 145.833V125.856C541 123.098 543.239 120.862 546 120.862Z" stroke="#1A1A1A" stroke-opacity="0.04"/>
<path d="M706 120.862H636C633.239 120.862 631 123.098 631 125.856V145.833C631 148.592 633.239 150.828 636 150.828H706C708.761 150.828 711 148.592 711 145.833V125.856C711 123.098 708.761 120.862 706 120.862Z" stroke="#1A1A1A" stroke-opacity="0.04"/>
<path d="M726 120.862H796C798.761 120.862 801 123.098 801 125.856V145.833C801 148.592 798.761 150.828 796 150.828H726C723.239 150.828 721 148.592 721 145.833V125.856C721 123.098 723.239 120.862 726 120.862Z" stroke="#1A1A1A" stroke-opacity="0.04"/>
<path d="M886 120.862H816C813.239 120.862 811 123.098 811 125.856V145.833C811 148.592 813.239 150.828 816 150.828H886C888.761 150.828 891 148.592 891 145.833V125.856C891 123.098 888.761 120.862 886 120.862Z" stroke="#1A1A1A" stroke-opacity="0.04"/>
<path d="M166 80.9081H96C93.2386 80.9081 91 83.1441 91 85.9023V105.879C91 108.638 93.2386 110.874 96 110.874H166C168.761 110.874 171 108.638 171 105.879V85.9023C171 83.1441 168.761 80.9081 166 80.9081Z" stroke="#1A1A1A" stroke-opacity="0.04"/>
<path d="M186 80.9081H256C258.761 80.9081 261 83.1441 261 85.9023V105.879C261 108.638 258.761 110.874 256 110.874H186C183.239 110.874 181 108.638 181 105.879V85.9023C181 83.1441 183.239 80.9081 186 80.9081Z" stroke="#1A1A1A" stroke-opacity="0.04"/>
<path d="M346 80.9081H276C273.239 80.9081 271 83.1441 271 85.9023V105.879C271 108.638 273.239 110.874 276 110.874H346C348.761 110.874 351 108.638 351 105.879V85.9023C351 83.1441 348.761 80.9081 346 80.9081Z" stroke="#1A1A1A" stroke-opacity="0.04"/>
<path d="M366 80.9081H436C438.761 80.9081 441 83.1441 441 85.9023V105.879C441 108.638 438.761 110.874 436 110.874H366C363.239 110.874 361 108.638 361 105.879V85.9023C361 83.1441 363.239 80.9081 366 80.9081Z" stroke="#1A1A1A" stroke-opacity="0.04"/>
<path d="M526 80.9081H456C453.239 80.9081 451 83.1441 451 85.9023V105.879C451 108.638 453.239 110.874 456 110.874H526C528.761 110.874 531 108.638 531 105.879V85.9023C531 83.1441 528.761 80.9081 526 80.9081Z" stroke="#1A1A1A" stroke-opacity="0.04"/>
<path d="M546 80.9081H616C618.761 80.9081 621 83.1441 621 85.9023V105.879C621 108.638 618.761 110.874 616 110.874H546C543.239 110.874 541 108.638 541 105.879V85.9023C541 83.1441 543.239 80.9081 546 80.9081Z" stroke="#1A1A1A" stroke-opacity="0.04"/>
<path d="M706 80.9081H636C633.239 80.9081 631 83.1441 631 85.9023V105.879C631 108.638 633.239 110.874 636 110.874H706C708.761 110.874 711 108.638 711 105.879V85.9023C711 83.1441 708.761 80.9081 706 80.9081Z" stroke="#1A1A1A" stroke-opacity="0.04"/>
<path d="M726 80.9081H796C798.761 80.9081 801 83.1441 801 85.9023V105.879C801 108.638 798.761 110.874 796 110.874H726C723.239 110.874 721 108.638 721 105.879V85.9023C721 83.1441 723.239 80.9081 726 80.9081Z" stroke="#1A1A1A" stroke-opacity="0.04"/>
<path d="M886 80.9081H816C813.239 80.9081 811 83.1441 811 85.9023V105.879C811 108.638 813.239 110.874 816 110.874H886C888.761 110.874 891 108.638 891 105.879V85.9023C891 83.1441 888.761 80.9081 886 80.9081Z" stroke="#1A1A1A" stroke-opacity="0.04"/>
<path d="M166 40.954H96C93.2386 40.954 91 43.19 91 45.9483V65.9253C91 68.6836 93.2386 70.9196 96 70.9196H166C168.761 70.9196 171 68.6836 171 65.9253V45.9483C171 43.19 168.761 40.954 166 40.954Z" stroke="#1A1A1A" stroke-opacity="0.04"/>
<path d="M186 40.954H256C258.761 40.954 261 43.19 261 45.9483V65.9253C261 68.6836 258.761 70.9196 256 70.9196H186C183.239 70.9196 181 68.6836 181 65.9253V45.9483C181 43.19 183.239 40.954 186 40.954Z" stroke="#1A1A1A" stroke-opacity="0.04"/>
<path d="M346 40.954H276C273.239 40.954 271 43.19 271 45.9483V65.9253C271 68.6836 273.239 70.9196 276 70.9196H346C348.761 70.9196 351 68.6836 351 65.9253V45.9483C351 43.19 348.761 40.954 346 40.954Z" stroke="#1A1A1A" stroke-opacity="0.04"/>
<path d="M366 40.954H436C438.761 40.954 441 43.19 441 45.9483V65.9253C441 68.6836 438.761 70.9196 436 70.9196H366C363.239 70.9196 361 68.6836 361 65.9253V45.9483C361 43.19 363.239 40.954 366 40.954Z" stroke="#1A1A1A" stroke-opacity="0.04"/>
<path d="M526 40.954H456C453.239 40.954 451 43.19 451 45.9483V65.9253C451 68.6836 453.239 70.9196 456 70.9196H526C528.761 70.9196 531 68.6836 531 65.9253V45.9483C531 43.19 528.761 40.954 526 40.954Z" stroke="#1A1A1A" stroke-opacity="0.04"/>
<path d="M546 40.954H616C618.761 40.954 621 43.19 621 45.9483V65.9253C621 68.6836 618.761 70.9196 616 70.9196H546C543.239 70.9196 541 68.6836 541 65.9253V45.9483C541 43.19 543.239 40.954 546 40.954Z" stroke="#1A1A1A" stroke-opacity="0.04"/>
<path d="M706 40.954H636C633.239 40.954 631 43.19 631 45.9483V65.9253C631 68.6836 633.239 70.9196 636 70.9196H706C708.761 70.9196 711 68.6836 711 65.9253V45.9483C711 43.19 708.761 40.954 706 40.954Z" stroke="#1A1A1A" stroke-opacity="0.04"/>
<path d="M726 40.954H796C798.761 40.954 801 43.19 801 45.9483V65.9253C801 68.6836 798.761 70.9196 796 70.9196H726C723.239 70.9196 721 68.6836 721 65.9253V45.9483C721 43.19 723.239 40.954 726 40.954Z" stroke="#1A1A1A" stroke-opacity="0.04"/>
<path d="M886 40.954H816C813.239 40.954 811 43.19 811 45.9483V65.9253C811 68.6836 813.239 70.9196 816 70.9196H886C888.761 70.9196 891 68.6836 891 65.9253V45.9483C891 43.19 888.761 40.954 886 40.954Z" stroke="#1A1A1A" stroke-opacity="0.04"/>
<path d="M166 1H96C93.2386 1 91 3.236 91 5.99426V25.9713C91 28.7295 93.2386 30.9655 96 30.9655H166C168.761 30.9655 171 28.7295 171 25.9713V5.99426C171 3.236 168.761 1 166 1Z" stroke="#1A1A1A" stroke-opacity="0.04"/>
<path d="M186 1H256C258.761 1 261 3.236 261 5.99426V25.9713C261 28.7295 258.761 30.9655 256 30.9655H186C183.239 30.9655 181 28.7295 181 25.9713V5.99426C181 3.236 183.239 1 186 1Z" stroke="#1A1A1A" stroke-opacity="0.04"/>
<path d="M346 1H276C273.239 1 271 3.236 271 5.99426V25.9713C271 28.7295 273.239 30.9655 276 30.9655H346C348.761 30.9655 351 28.7295 351 25.9713V5.99426C351 3.236 348.761 1 346 1Z" stroke="#1A1A1A" stroke-opacity="0.04"/>
<path d="M366 1H436C438.761 1 441 3.236 441 5.99426V25.9713C441 28.7295 438.761 30.9655 436 30.9655H366C363.239 30.9655 361 28.7295 361 25.9713V5.99426C361 3.236 363.239 1 366 1Z" stroke="#1A1A1A" stroke-opacity="0.04"/>
<path d="M526 1H456C453.239 1 451 3.236 451 5.99426V25.9713C451 28.7295 453.239 30.9655 456 30.9655H526C528.761 30.9655 531 28.7295 531 25.9713V5.99426C531 3.236 528.761 1 526 1Z" stroke="#1A1A1A" stroke-opacity="0.04"/>
<path d="M546 1H616C618.761 1 621 3.236 621 5.99426V25.9713C621 28.7295 618.761 30.9655 616 30.9655H546C543.239 30.9655 541 28.7295 541 25.9713V5.99426C541 3.236 543.239 1 546 1Z" stroke="#1A1A1A" stroke-opacity="0.04"/>
<path d="M706 1H636C633.239 1 631 3.236 631 5.99426V25.9713C631 28.7295 633.239 30.9655 636 30.9655H706C708.761 30.9655 711 28.7295 711 25.9713V5.99426C711 3.236 708.761 1 706 1Z" stroke="#1A1A1A" stroke-opacity="0.04"/>
<path d="M726 1H796C798.761 1 801 3.236 801 5.99426V25.9713C801 28.7295 798.761 30.9655 796 30.9655H726C723.239 30.9655 721 28.7295 721 25.9713V5.99426C721 3.236 723.239 1 726 1Z" stroke="#1A1A1A" stroke-opacity="0.04"/>
<path d="M886 1H816C813.239 1 811 3.236 811 5.99426V25.9713C811 28.7295 813.239 30.9655 816 30.9655H886C888.761 30.9655 891 28.7295 891 25.9713V5.99426C891 3.236 888.761 1 886 1Z" stroke="#1A1A1A" stroke-opacity="0.04"/>
</svg>
