<svg width="14" height="14" viewBox="0 0 14 14" fill="none" xmlns="http://www.w3.org/2000/svg">
<path d="M13.9043 5.30677C13.8315 5.19162 13.7202 5.09479 13.5826 5.027C13.4451 4.95921 13.2866 4.92312 13.1249 4.92273H8.74634V0.733228C8.75574 0.58009 8.70166 0.428742 8.59245 0.302547C8.48325 0.176351 8.32499 0.0823231 8.1421 0.0349768C7.96627 -0.0111475 7.77665 -0.0116658 7.60043 0.0334961C7.42422 0.0786581 7.27048 0.167178 7.16129 0.286347L0.155575 7.96711C0.067798 8.06826 0.0150913 8.18611 0.00278918 8.30872C-0.00951297 8.43134 0.0190261 8.55437 0.0855176 8.66536C0.146749 8.79227 0.253119 8.90216 0.391571 8.98154C0.530023 9.06093 0.694531 9.10635 0.864904 9.11224H5.24348V13.3017C5.24361 13.449 5.30212 13.5924 5.41065 13.7116C5.51917 13.8307 5.67215 13.9194 5.84772 13.9651C5.93571 13.9868 6.0271 13.9986 6.11919 14C6.25737 14.0003 6.39367 13.9745 6.51695 13.9247C6.64023 13.875 6.747 13.8027 6.82852 13.7137L13.8342 6.03295C13.9286 5.92877 13.9851 5.80585 13.9974 5.67772C14.0098 5.5496 13.9776 5.42123 13.9043 5.30677ZM6.99491 11.1511V8.41399C6.99491 8.2288 6.90265 8.0512 6.73842 7.92025C6.57419 7.7893 6.35145 7.71574 6.11919 7.71574H2.61633L6.99491 2.88384V5.62099C6.99491 5.80617 7.08717 5.98378 7.2514 6.11472C7.41563 6.24567 7.63837 6.31924 7.87062 6.31924H11.3735L6.99491 11.1511Z" fill="white"/>
</svg>
