<svg width="13" height="18" viewBox="0 0 13 18" fill="none" xmlns="http://www.w3.org/2000/svg">
<path fill-rule="evenodd" clip-rule="evenodd" d="M2.4375 1.63636C1.98877 1.63636 1.625 2.00268 1.625 2.45455V15.5455C1.625 15.9973 1.98877 16.3636 2.4375 16.3636H10.5625C11.0112 16.3636 11.375 15.9973 11.375 15.5455V2.45455C11.375 2.00268 11.0112 1.63636 10.5625 1.63636H2.4375ZM0 2.45455C0 1.09894 1.09131 0 2.4375 0H10.5625C11.9087 0 13 1.09894 13 2.45455V15.5455C13 16.9011 11.9087 18 10.5625 18H2.4375C1.09131 18 0 16.9011 0 15.5455V2.45455Z" fill="white"/>
<path fill-rule="evenodd" clip-rule="evenodd" d="M5.68652 13.909C5.68652 13.4571 6.05029 13.0908 6.49902 13.0908H6.50715C6.95588 13.0908 7.31965 13.4571 7.31965 13.909C7.31965 14.3609 6.95588 14.7272 6.50715 14.7272H6.49902C6.05029 14.7272 5.68652 14.3609 5.68652 13.909Z" fill="white"/>
</svg>
