<svg width="14" height="18" viewBox="0 0 14 18" fill="none" xmlns="http://www.w3.org/2000/svg">
<path d="M12.25 10.0867V7.21768C12.2487 5.93936 11.8088 4.70274 11.008 3.72683C10.2073 2.75091 9.09743 2.09867 7.875 1.88562V0.90221C7.875 0.662929 7.78281 0.433449 7.61872 0.264251C7.45462 0.095054 7.23206 0 7 0C6.76794 0 6.54538 0.095054 6.38128 0.264251C6.21719 0.433449 6.125 0.662929 6.125 0.90221V1.88562C4.90257 2.09867 3.79271 2.75091 2.99196 3.72683C2.19122 4.70274 1.75126 5.93936 1.75 7.21768V10.0867C1.23939 10.2729 0.797124 10.6173 0.483821 11.0728C0.170519 11.5283 0.00152207 12.0725 0 12.6309V14.4354C0 14.6746 0.0921874 14.9041 0.256282 15.0733C0.420376 15.2425 0.642936 15.3376 0.875 15.3376H3.6225C3.824 16.1021 4.26388 16.777 4.87427 17.2581C5.48467 17.7393 6.23166 18 7 18C7.76834 18 8.51533 17.7393 9.12573 17.2581C9.73612 16.777 10.176 16.1021 10.3775 15.3376H13.125C13.3571 15.3376 13.5796 15.2425 13.7437 15.0733C13.9078 14.9041 14 14.6746 14 14.4354V12.6309C13.9985 12.0725 13.8295 11.5283 13.5162 11.0728C13.2029 10.6173 12.7606 10.2729 12.25 10.0867ZM3.5 7.21768C3.5 6.26056 3.86875 5.34264 4.52513 4.66585C5.1815 3.98906 6.07174 3.60884 7 3.60884C7.92826 3.60884 8.8185 3.98906 9.47487 4.66585C10.1313 5.34264 10.5 6.26056 10.5 7.21768V9.92431H3.5V7.21768ZM7 16.2398C6.6946 16.2379 6.395 16.1536 6.13098 15.9953C5.86695 15.8371 5.6477 15.6103 5.495 15.3376H8.505C8.3523 15.6103 8.13305 15.8371 7.86902 15.9953C7.605 16.1536 7.3054 16.2379 7 16.2398ZM12.25 13.5332H1.75V12.6309C1.75 12.3917 1.84219 12.1622 2.00628 11.993C2.17038 11.8238 2.39294 11.7287 2.625 11.7287H11.375C11.6071 11.7287 11.8296 11.8238 11.9937 11.993C12.1578 12.1622 12.25 12.3917 12.25 12.6309V13.5332Z" fill="#1A1A1A"/>
</svg>
