<svg width="18" height="14" viewBox="0 0 18 14" fill="none" xmlns="http://www.w3.org/2000/svg">
<path fill-rule="evenodd" clip-rule="evenodd" d="M2.25 1.55556C1.83579 1.55556 1.5 1.90378 1.5 2.33333V11.6667C1.5 12.0962 1.83579 12.4444 2.25 12.4444H15.75C16.1642 12.4444 16.5 12.0962 16.5 11.6667V2.33333C16.5 1.90378 16.1642 1.55556 15.75 1.55556H2.25ZM0 2.33333C0 1.04467 1.00736 0 2.25 0H15.75C16.9926 0 18 1.04467 18 2.33333V11.6667C18 12.9553 16.9926 14 15.75 14H2.25C1.00736 14 0 12.9553 0 11.6667V2.33333Z" fill="#1A1A1A"/>
<path fill-rule="evenodd" clip-rule="evenodd" d="M0 5.44477C0 5.01522 0.335786 4.66699 0.75 4.66699H17.25C17.6642 4.66699 18 5.01522 18 5.44477C18 5.87432 17.6642 6.22255 17.25 6.22255H0.75C0.335786 6.22255 0 5.87432 0 5.44477Z" fill="#1A1A1A"/>
</svg>
