<svg width="14" height="14" viewBox="0 0 14 14" fill="none" xmlns="http://www.w3.org/2000/svg">
<path opacity="0.4" d="M7.63635 6.30048H0.636391C0.467618 6.30048 0.305758 6.37423 0.186417 6.50549C0.0670766 6.63676 3.18214e-05 6.8148 3.18214e-05 7.00044V13.3C3.18214e-05 13.4857 0.0670766 13.6637 0.186417 13.795C0.305758 13.9263 0.467618 14 0.636391 14H7.54726C7.57908 14 7.60453 14 7.63635 14C7.80512 14 7.96698 13.9263 8.08632 13.795C8.20566 13.6637 8.27271 13.4857 8.27271 13.3V7.00044C8.27271 6.8148 8.20566 6.63676 8.08632 6.50549C7.96698 6.37423 7.80512 6.30048 7.63635 6.30048ZM4.09819 12.6001L5.32636 11.2492C5.34378 11.2203 5.36742 11.1966 5.39518 11.1802C5.42293 11.1638 5.45395 11.1553 5.48545 11.1553C5.51696 11.1553 5.54797 11.1638 5.57573 11.1802C5.60349 11.1966 5.62713 11.2203 5.64454 11.2492L6.86635 12.6001H4.09819ZM6.99999 10.7662L6.54181 10.2692C6.25646 9.9693 5.87696 9.80193 5.48227 9.80193C5.08758 9.80193 4.70808 9.9693 4.42273 10.2692L2.29729 12.6001H1.27275V7.70039H6.99999V10.7662ZM0.636391 1.47778C0.746827 1.47776 0.855357 1.44613 0.951311 1.38599C1.04726 1.32586 1.12734 1.23929 1.18366 1.1348C1.26458 1.0078 1.3069 0.855898 1.30457 0.700832C1.30468 0.605892 1.28722 0.51192 1.25327 0.424632C1.21932 0.337345 1.16958 0.258567 1.10708 0.193091C1.04458 0.127615 0.970615 0.0768098 0.889698 0.0437654C0.808781 0.010721 0.722598 -0.00387152 0.636391 0.000875562C0.467618 0.000875562 0.305758 0.0746207 0.186417 0.205888C0.0670766 0.337155 3.18214e-05 0.515192 3.18214e-05 0.700832V0.770827C-0.00080924 0.863334 0.0150298 0.955107 0.0466331 1.04084C0.0782364 1.12657 0.124977 1.20456 0.184152 1.2703C0.243328 1.33604 0.313764 1.38823 0.391388 1.42384C0.469013 1.45945 0.552285 1.47779 0.636391 1.47778ZM5.67 1.40079H5.7909C5.95968 1.40079 6.12154 1.32704 6.24088 1.19578C6.36022 1.06451 6.42726 0.886472 6.42726 0.700832C6.42726 0.515192 6.36022 0.337155 6.24088 0.205888C6.12154 0.0746207 5.95968 0.000875562 5.7909 0.000875562H5.67C5.50122 0.000875562 5.33936 0.0746207 5.22002 0.205888C5.10068 0.337155 5.03364 0.515192 5.03364 0.700832C5.03364 0.886472 5.10068 1.06451 5.22002 1.19578C5.33936 1.32704 5.50122 1.40079 5.67 1.40079ZM0.636391 4.74658C0.805165 4.74658 0.967025 4.67283 1.08637 4.54157C1.20571 4.4103 1.27275 4.23226 1.27275 4.04662V3.89263C1.27275 3.70699 1.20571 3.52896 1.08637 3.39769C0.967025 3.26642 0.805165 3.19268 0.636391 3.19268C0.467618 3.19268 0.305758 3.26642 0.186417 3.39769C0.0670766 3.52896 3.18214e-05 3.70699 3.18214e-05 3.89263V4.04662C3.18214e-05 4.23226 0.0670766 4.4103 0.186417 4.54157C0.305758 4.67283 0.467618 4.74658 0.636391 4.74658ZM8.32998 0.000875562H8.20907C8.0403 0.000875562 7.87844 0.0746207 7.7591 0.205888C7.63976 0.337155 7.57271 0.515192 7.57271 0.700832C7.57271 0.886472 7.63976 1.06451 7.7591 1.19578C7.87844 1.32704 8.0403 1.40079 8.20907 1.40079H8.32998C8.49875 1.40079 8.66061 1.32704 8.77995 1.19578C8.89929 1.06451 8.96634 0.886472 8.96634 0.700832C8.96634 0.515192 8.89929 0.337155 8.77995 0.205888C8.66061 0.0746207 8.49875 0.000875562 8.32998 0.000875562ZM3.12456 1.40079H3.24547C3.41424 1.40079 3.5761 1.32704 3.69544 1.19578C3.81478 1.06451 3.88183 0.886472 3.88183 0.700832C3.88183 0.515192 3.81478 0.337155 3.69544 0.205888C3.5761 0.0746207 3.41424 0.000875562 3.24547 0.000875562H3.12456C2.95578 0.000875562 2.79392 0.0746207 2.67458 0.205888C2.55524 0.337155 2.4882 0.515192 2.4882 0.700832C2.4882 0.886472 2.55524 1.06451 2.67458 1.19578C2.79392 1.32704 2.95578 1.40079 3.12456 1.40079ZM13.3636 3.08068C13.1948 3.08068 13.033 3.15443 12.9136 3.2857C12.7943 3.41696 12.7272 3.595 12.7272 3.78064V3.92763C12.7272 4.11327 12.7943 4.29131 12.9136 4.42257C13.033 4.55384 13.1948 4.62759 13.3636 4.62759C13.5324 4.62759 13.6942 4.55384 13.8136 4.42257C13.9329 4.29131 13.9999 4.11327 13.9999 3.92763V3.78064C13.9999 3.595 13.9329 3.41696 13.8136 3.2857C13.6942 3.15443 13.5324 3.08068 13.3636 3.08068ZM10.2582 12.6001H10.1054C9.93665 12.6001 9.77479 12.6738 9.65545 12.8051C9.53611 12.9364 9.46906 13.1144 9.46906 13.3C9.46906 13.4857 9.53611 13.6637 9.65545 13.795C9.77479 13.9263 9.93665 14 10.1054 14H10.2582C10.4269 14 10.5888 13.9263 10.7081 13.795C10.8275 13.6637 10.8945 13.4857 10.8945 13.3C10.8945 13.1144 10.8275 12.9364 10.7081 12.8051C10.5888 12.6738 10.4269 12.6001 10.2582 12.6001ZM13.2999 0.000875562C13.1424 0.0182862 12.9965 0.0996498 12.8906 0.229078C12.7847 0.358507 12.7264 0.526706 12.7272 0.700832C12.7287 0.802753 12.7504 0.903085 12.7909 0.994813C12.8495 1.13309 12.9475 1.24652 13.0702 1.31784C13.1928 1.38915 13.3332 1.41445 13.4701 1.38989C13.607 1.36532 13.7328 1.29223 13.8285 1.18174C13.9241 1.07126 13.9843 0.929421 13.9999 0.777827V0.700832C13.9855 0.50838 13.9052 0.329128 13.7753 0.199229C13.6454 0.0693287 13.4755 -0.00155422 13.2999 0.000875562ZM13.3636 6.23049C13.1948 6.23049 13.033 6.30423 12.9136 6.4355C12.7943 6.56677 12.7272 6.7448 12.7272 6.93044V7.08443C12.7272 7.27007 12.7943 7.44811 12.9136 7.57938C13.033 7.71064 13.1948 7.78439 13.3636 7.78439C13.5324 7.78439 13.6942 7.71064 13.8136 7.57938C13.9329 7.44811 13.9999 7.27007 13.9999 7.08443V6.93044C13.9999 6.7448 13.9329 6.56677 13.8136 6.4355C13.6942 6.30423 13.5324 6.23049 13.3636 6.23049ZM10.8754 0.000875562H10.7545C10.5857 0.000875562 10.4239 0.0746207 10.3045 0.205888C10.1852 0.337155 10.1182 0.515192 10.1182 0.700832C10.1182 0.886472 10.1852 1.06451 10.3045 1.19578C10.4239 1.32704 10.5857 1.40079 10.7545 1.40079H10.8754C11.0442 1.40079 11.2061 1.32704 11.3254 1.19578C11.4447 1.06451 11.5118 0.886472 11.5118 0.700832C11.5118 0.515192 11.4447 0.337155 11.3254 0.205888C11.2061 0.0746207 11.0442 0.000875562 10.8754 0.000875562ZM13.3636 12.6001C13.2659 12.5999 13.1697 12.6264 13.0836 12.6771C12.9775 12.7343 12.8879 12.8229 12.825 12.9329C12.762 13.0429 12.7282 13.17 12.7272 13.3C12.7272 13.4857 12.7943 13.6637 12.9136 13.795C13.033 13.9263 13.1948 14 13.3636 14C13.5386 13.9841 13.7015 13.8958 13.8196 13.7529C13.9377 13.61 14.0022 13.4231 13.9999 13.23C13.9841 13.0568 13.9101 12.8962 13.7925 12.7798C13.6748 12.6633 13.5219 12.5992 13.3636 12.6001ZM13.3636 9.40829C13.1948 9.40829 13.033 9.48203 12.9136 9.6133C12.7943 9.74457 12.7272 9.9226 12.7272 10.1082V10.2622C12.7272 10.4479 12.7943 10.6259 12.9136 10.7572C13.033 10.8884 13.1948 10.9622 13.3636 10.9622C13.5324 10.9622 13.6942 10.8884 13.8136 10.7572C13.9329 10.6259 13.9999 10.4479 13.9999 10.2622V10.0802C13.9999 9.89461 13.9329 9.71657 13.8136 9.5853C13.6942 9.45403 13.5324 9.38029 13.3636 9.38029V9.40829Z" fill="white"/>
</svg>
