<svg width="14" height="14" viewBox="0 0 14 14" fill="none" xmlns="http://www.w3.org/2000/svg">
<path d="M7.7 4.9H6.3V3.5C6.3 3.31435 6.22625 3.1363 6.09497 3.00503C5.9637 2.87375 5.78565 2.8 5.6 2.8C5.41435 2.8 5.2363 2.87375 5.10503 3.00503C4.97375 3.1363 4.9 3.31435 4.9 3.5V4.9H3.5C3.31435 4.9 3.1363 4.97375 3.00503 5.10503C2.87375 5.2363 2.8 5.41435 2.8 5.6C2.8 5.78565 2.87375 5.9637 3.00503 6.09497C3.1363 6.22625 3.31435 6.3 3.5 6.3H4.9V7.7C4.9 7.88565 4.97375 8.0637 5.10503 8.19497C5.2363 8.32625 5.41435 8.4 5.6 8.4C5.78565 8.4 5.9637 8.32625 6.09497 8.19497C6.22625 8.0637 6.3 7.88565 6.3 7.7V6.3H7.7C7.88565 6.3 8.0637 6.22625 8.19497 6.09497C8.32625 5.9637 8.4 5.78565 8.4 5.6C8.4 5.41435 8.32625 5.2363 8.19497 5.10503C8.0637 4.97375 7.88565 4.9 7.7 4.9ZM11.2 9.1V2.1C11.2 1.54305 10.9788 1.0089 10.5849 0.615076C10.1911 0.221249 9.65695 0 9.1 0H2.1C1.54305 0 1.0089 0.221249 0.615076 0.615076C0.221249 1.0089 0 1.54305 0 2.1V9.1C0 9.65695 0.221249 10.1911 0.615076 10.5849C1.0089 10.9788 1.54305 11.2 2.1 11.2H9.1C9.65695 11.2 10.1911 10.9788 10.5849 10.5849C10.9788 10.1911 11.2 9.65695 11.2 9.1ZM1.4 9.1V2.1C1.4 1.91435 1.47375 1.7363 1.60503 1.60503C1.7363 1.47375 1.91435 1.4 2.1 1.4H9.1C9.28565 1.4 9.4637 1.47375 9.59497 1.60503C9.72625 1.7363 9.8 1.91435 9.8 2.1V9.1C9.8 9.28565 9.72625 9.4637 9.59497 9.59497C9.4637 9.72625 9.28565 9.8 9.1 9.8H2.1C1.91435 9.8 1.7363 9.72625 1.60503 9.59497C1.47375 9.4637 1.4 9.28565 1.4 9.1ZM13.3 2.8C13.1143 2.8 12.9363 2.87375 12.805 3.00503C12.6737 3.1363 12.6 3.31435 12.6 3.5V10.5C12.6 11.057 12.3788 11.5911 11.9849 11.9849C11.5911 12.3788 11.057 12.6 10.5 12.6H3.5C3.31435 12.6 3.1363 12.6737 3.00503 12.805C2.87375 12.9363 2.8 13.1143 2.8 13.3C2.8 13.4857 2.87375 13.6637 3.00503 13.795C3.1363 13.9263 3.31435 14 3.5 14H10.5C11.4283 14 12.3185 13.6313 12.9749 12.9749C13.6313 12.3185 14 11.4283 14 10.5V3.5C14 3.31435 13.9263 3.1363 13.795 3.00503C13.6637 2.87375 13.4857 2.8 13.3 2.8Z" fill="white"/>
</svg>
