<svg width="14" height="14" viewBox="0 0 14 14" fill="none" xmlns="http://www.w3.org/2000/svg">
<path d="M13.2997 6.30086C13.114 6.30086 12.936 6.37461 12.8047 6.50588C12.6734 6.63716 12.5997 6.8152 12.5997 7.00085C12.608 8.31193 12.1589 9.58489 11.3297 10.6005C10.5004 11.616 9.34303 12.3107 8.05677 12.5647C6.7705 12.8188 5.43591 12.6163 4.28284 11.9923C3.12978 11.3682 2.23043 10.3616 1.73968 9.14577C1.24894 7.92996 1.19752 6.58108 1.59429 5.33144C1.99106 4.0818 2.81118 3.00964 3.91339 2.29961C5.01561 1.58958 6.33092 1.28613 7.63279 1.44153C8.93466 1.59692 10.1416 2.20143 11.0457 3.15094H9.36576C9.18011 3.15094 9.00207 3.22469 8.8708 3.35596C8.73953 3.48724 8.66578 3.66528 8.66578 3.85093C8.66578 4.03657 8.73953 4.21462 8.8708 4.34589C9.00207 4.47716 9.18011 4.55091 9.36576 4.55091H12.5367C12.7223 4.55091 12.9004 4.47716 13.0316 4.34589C13.1629 4.21462 13.2367 4.03657 13.2367 3.85093V0.701007C13.2367 0.51536 13.1629 0.337317 13.0316 0.206045C12.9004 0.074773 12.7223 0.00102516 12.5367 0.00102516C12.351 0.00102516 12.173 0.074773 12.0417 0.206045C11.9104 0.337317 11.8367 0.51536 11.8367 0.701007V1.93998C10.671 0.825645 9.15629 0.147988 7.54862 0.021555C5.94095 -0.104878 4.33893 0.327668 3.01337 1.24608C1.68781 2.16448 0.72001 3.51242 0.273575 5.06203C-0.17286 6.61164 -0.0705491 8.26786 0.563213 9.75074C1.19698 11.2336 2.32331 12.4522 3.75183 13.2005C5.18035 13.9488 6.82343 14.1808 8.40331 13.8575C9.9832 13.5342 11.403 12.6752 12.4227 11.4259C13.4424 10.1766 13.9994 8.61348 13.9996 7.00085C13.9996 6.8152 13.9259 6.63716 13.7946 6.50588C13.6634 6.37461 13.4853 6.30086 13.2997 6.30086Z" fill="#1A1A1A"/>
</svg>
