<svg width="14" height="14" viewBox="0 0 14 14" fill="none" xmlns="http://www.w3.org/2000/svg">
<path d="M12.8544 7.46194C12.7402 7.33421 12.6772 7.17001 12.6772 7C12.6772 6.82999 12.7402 6.66579 12.8544 6.53806L13.7663 5.5302C13.8668 5.42008 13.9292 5.28153 13.9445 5.13441C13.9599 4.98729 13.9274 4.83917 13.8518 4.71131L12.4269 2.28964C12.3521 2.16192 12.2381 2.06069 12.1012 2.00036C11.9643 1.94003 11.8115 1.9237 11.6647 1.95369L10.3253 2.21965C10.1549 2.25425 9.97748 2.22636 9.82655 2.14126C9.67562 2.05616 9.56161 1.91973 9.50604 1.75771L9.07147 0.476887C9.02368 0.337871 8.93262 0.217128 8.81118 0.131723C8.68973 0.0463189 8.54403 0.000573079 8.39468 0.000951841H5.54503C5.38968 -0.0070145 5.23594 0.0351956 5.1073 0.121135C4.97866 0.207075 4.88218 0.33202 4.83262 0.476887L4.43366 1.75771C4.3781 1.91973 4.26409 2.05616 4.11316 2.14126C3.96223 2.22636 3.78481 2.25425 3.61439 2.21965L2.23943 1.95369C2.10019 1.93436 1.95824 1.95594 1.83147 2.01573C1.70469 2.07551 1.59876 2.17082 1.52702 2.28964L0.102196 4.71131C0.0246573 4.83775 -0.0102067 4.98503 0.00258858 5.13211C0.0153839 5.27919 0.0751832 5.41852 0.173437 5.5302L1.0782 6.53806C1.19241 6.66579 1.2554 6.82999 1.2554 7C1.2554 7.17001 1.19241 7.33421 1.0782 7.46194L0.173437 8.4698C0.0751832 8.58148 0.0153839 8.72081 0.00258858 8.86789C-0.0102067 9.01497 0.0246573 9.16225 0.102196 9.28869L1.52702 11.7104C1.60189 11.8381 1.7159 11.9393 1.85277 11.9996C1.98965 12.06 2.14242 12.0763 2.2893 12.0463L3.62864 11.7803C3.79906 11.7458 3.97648 11.7736 4.12741 11.8587C4.27834 11.9438 4.39235 12.0803 4.44791 12.2423L4.88248 13.5231C4.93205 13.668 5.02853 13.7929 5.15717 13.8789C5.28581 13.9648 5.43954 14.007 5.5949 13.999H8.44455C8.5939 13.9994 8.7396 13.9537 8.86104 13.8683C8.98249 13.7829 9.07355 13.6621 9.12134 13.5231L9.55591 12.2423C9.61148 12.0803 9.72548 11.9438 9.87642 11.8587C10.0273 11.7736 10.2048 11.7458 10.3752 11.7803L11.7145 12.0463C11.8614 12.0763 12.0142 12.06 12.1511 11.9996C12.2879 11.9393 12.4019 11.8381 12.4768 11.7104L13.9016 9.28869C13.9773 9.16083 14.0097 9.01271 13.9944 8.86559C13.979 8.71847 13.9166 8.57992 13.8161 8.4698L12.8544 7.46194ZM11.7929 8.39981L12.3628 9.02972L11.4509 10.5835L10.6103 10.4155C10.0972 10.3125 9.56344 10.3981 9.11036 10.6562C8.65729 10.9142 8.31642 11.3267 8.15246 11.8153L7.88174 12.5992H6.05797L5.8015 11.8013C5.63754 11.3127 5.29667 10.9002 4.84359 10.6422C4.39051 10.3841 3.85677 10.2985 3.34367 10.4015L2.50303 10.5695L1.57689 9.02273L2.14682 8.39281C2.4973 8.00785 2.69106 7.50948 2.69106 6.993C2.69106 6.47652 2.4973 5.97815 2.14682 5.59319L1.57689 4.96328L2.48878 3.42349L3.32943 3.59146C3.84252 3.6945 4.37626 3.60888 4.82934 3.35084C5.28242 3.09279 5.62329 2.6803 5.78725 2.19165L6.05797 1.40076H7.88174L8.15246 2.19865C8.31642 2.6873 8.65729 3.09979 9.11036 3.35783C9.56344 3.61588 10.0972 3.7015 10.6103 3.59846L11.4509 3.43049L12.3628 4.98427L11.7929 5.61419C11.4463 5.99827 11.255 6.49375 11.255 7.007C11.255 7.52025 11.4463 8.01573 11.7929 8.39981ZM6.96985 4.20038C6.40625 4.20038 5.8553 4.36458 5.38667 4.6722C4.91805 4.97983 4.5528 5.41707 4.33712 5.92863C4.12144 6.4402 4.065 7.00311 4.17496 7.54618C4.28491 8.08925 4.55632 8.5881 4.95485 8.97963C5.35338 9.37116 5.86114 9.6378 6.41391 9.74583C6.96669 9.85385 7.53966 9.79841 8.06037 9.58651C8.58107 9.37461 9.02613 9.01578 9.33925 8.55538C9.65238 8.09499 9.8195 7.55371 9.8195 7C9.8195 6.25749 9.51927 5.5454 8.98486 5.02037C8.45045 4.49534 7.72563 4.20038 6.96985 4.20038ZM6.96985 8.39981C6.68805 8.39981 6.41257 8.31771 6.17826 8.1639C5.94395 8.01009 5.76133 7.79147 5.65349 7.53568C5.54565 7.2799 5.51743 6.99845 5.57241 6.72691C5.62738 6.45537 5.76308 6.20595 5.96235 6.01019C6.16162 5.81442 6.4155 5.6811 6.69188 5.62709C6.96827 5.57308 7.25476 5.6008 7.51511 5.70674C7.77546 5.81269 7.99799 5.99211 8.15455 6.22231C8.31111 6.45251 8.39468 6.72314 8.39468 7C8.39468 7.37125 8.24456 7.7273 7.97736 7.98981C7.71015 8.25233 7.34774 8.39981 6.96985 8.39981Z" fill="#1A1A1A"/>
</svg>
